<svg xmlns="http://www.w3.org/2000/svg" xmlns:xlink="http://www.w3.org/1999/xlink" version="1.0" x="0" y="0" width="2400" height="631.5956322414104" viewBox="108.60813613891601 109.64626022338867 116.78372772216797 30.733371810913084" preserveAspectRatio="xMidYMid meet" color-interpolation-filters="sRGB"><g><defs><linearGradient id="92" x1="0%" y1="0%" x2="100%" y2="0%"><stop offset="0%" stop-color="#fa71cd"></stop> <stop offset="100%" stop-color="#9b59b6"></stop></linearGradient><linearGradient id="93" x1="0%" y1="0%" x2="100%" y2="0%"><stop offset="0%" stop-color="#f9d423"></stop> <stop offset="100%" stop-color="#f83600"></stop></linearGradient><linearGradient id="94" x1="0%" y1="0%" x2="100%" y2="0%"><stop offset="0%" stop-color="#0064d2"></stop> <stop offset="100%" stop-color="#1cb0f6"></stop></linearGradient><linearGradient id="95" x1="0%" y1="0%" x2="100%" y2="0%"><stop offset="0%" stop-color="#f00978"></stop> <stop offset="100%" stop-color="#3f51b1"></stop></linearGradient><linearGradient id="96" x1="0%" y1="0%" x2="100%" y2="0%"><stop offset="0%" stop-color="#7873f5"></stop> <stop offset="100%" stop-color="#ec77ab"></stop></linearGradient><linearGradient id="97" x1="0%" y1="0%" x2="100%" y2="0%"><stop offset="0%" stop-color="#f9d423"></stop> <stop offset="100%" stop-color="#e14fad"></stop></linearGradient><linearGradient id="98" x1="0%" y1="0%" x2="100%" y2="0%"><stop offset="0%" stop-color="#009efd"></stop> <stop offset="100%" stop-color="#2af598"></stop></linearGradient><linearGradient id="99" x1="0%" y1="0%" x2="100%" y2="0%"><stop offset="0%" stop-color="#ffcc00"></stop> <stop offset="100%" stop-color="#00b140"></stop></linearGradient><linearGradient id="100" x1="0%" y1="0%" x2="100%" y2="0%"><stop offset="0%" stop-color="#d51007"></stop> <stop offset="100%" stop-color="#ff8177"></stop></linearGradient><linearGradient id="102" x1="0%" y1="0%" x2="100%" y2="0%"><stop offset="0%" stop-color="#a2b6df"></stop> <stop offset="100%" stop-color="#0c3483"></stop></linearGradient><linearGradient id="103" x1="0%" y1="0%" x2="100%" y2="0%"><stop offset="0%" stop-color="#7ac5d8"></stop> <stop offset="100%" stop-color="#eea2a2"></stop></linearGradient><linearGradient id="104" x1="0%" y1="0%" x2="100%" y2="0%"><stop offset="0%" stop-color="#00ecbc"></stop> <stop offset="100%" stop-color="#007adf"></stop></linearGradient><linearGradient id="105" x1="0%" y1="0%" x2="100%" y2="0%"><stop offset="0%" stop-color="#b88746"></stop> <stop offset="100%" stop-color="#fdf5a6"></stop></linearGradient></defs><g fill="#333" class="icon-text-wrapper icon-svg-group iconsvg" transform="translate(115.7530746459961,116.23469924926758)"><g class="iconsvg-imagesvg" transform="translate(0,0.5565052032470703)" mask="url(#7efdda9c-3a29-4331-937c-00ee2a4c856f)"><g><rect fill="#333" fill-opacity="0" stroke-width="2" x="0" y="0" width="16.401892796462747" height="16.443494838403907" class="image-rect"></rect> <svg x="0" y="0" width="16.401892796462747" height="16.443494838403907" filtersec="colorsb9749476611" class="image-svg-svg primary" style="overflow: visible;"><svg xmlns="http://www.w3.org/2000/svg" viewBox="-0.001987457275390625 -0.00008392333984375 99.52532958984375 99.77788543701172"><g d-rs="3" transform="matrix(1,0,0,-1,0,99.7778)"><g fill-rule="evenodd"><path d="M71.82 38.55L38.29 72.07C23.23 87.13 46 109.89 61.06 94.84l33.52-33.53c15.06-15.06-7.7-37.82-22.76-22.76z" fill="#a463ff" opacity=".8"></path><path d="M61.23 72.07L27.71 38.55c-15.06-15.06-37.83 7.7-22.77 22.76l33.53 33.53c15.06 15.05 37.82-7.71 22.76-22.77z" fill="#ff007b" opacity=".8"></path><path d="M64.17 34.81L49.76 49.22 35.35 34.81c-9.46-9.46-7-21.34.11-28.49A20.86 20.86 0 0 1 49.76 0C65.3.19 78.65 20.33 64.17 34.81z" fill="#00e29c"></path></g></g></svg></svg> </g><rect v-gra="id" width="28.401893615722656" height="28.44349479675293" transform="translate(-6, -6)" style="pointer-events:none;" fill="url(#UxB2umEen5ucYOcVrwgwS)"></rect></g> <g transform="translate(21.908042907714844,0)"><g fill-rule="" class="tp-name iconsvg-namesvg"><g transform="scale(0.4599999999999995)"><g><path d="M19.39-28.6Q22.59-28.6 25.09-27.2 27.58-25.8 28.98-23.08 30.38-20.35 30.38-16.54L30.38-16.54 30.38 0 23.25 0 23.25-15.57Q23.25-18.93 21.57-20.73 19.9-22.54 16.99-22.54L16.99-22.54Q14.04-22.54 12.34-20.73 10.63-18.93 10.63-15.57L10.63-15.57 10.63 0 3.51 0 3.51-37.65 10.63-37.65 10.63-24.68Q12.01-26.51 14.3-27.55 16.59-28.6 19.39-28.6L19.39-28.6ZM50.66 0.46Q46.59 0.46 43.33-1.35 40.08-3.15 38.22-6.46 36.36-9.77 36.36-14.09L36.36-14.09Q36.36-18.42 38.27-21.73 40.18-25.03 43.49-26.84 46.79-28.65 50.87-28.65L50.87-28.65Q54.94-28.65 58.24-26.84 61.55-25.03 63.46-21.73 65.37-18.42 65.37-14.09L65.37-14.09Q65.37-9.77 63.41-6.46 61.45-3.15 58.12-1.35 54.78 0.46 50.66 0.46L50.66 0.46ZM50.66-5.75Q52.6-5.75 54.3-6.69 56-7.63 57.02-9.52 58.04-11.4 58.04-14.09L58.04-14.09Q58.04-18.11 55.93-20.28 53.82-22.44 50.76-22.44L50.76-22.44Q47.71-22.44 45.65-20.28 43.59-18.11 43.59-14.09L43.59-14.09Q43.59-10.07 45.6-7.91 47.61-5.75 50.66-5.75L50.66-5.75ZM91.05-28.19L98.22-28.19 98.22 0 91.05 0 91.05-3.56Q89.67-1.73 87.46-0.69 85.24 0.36 82.65 0.36L82.65 0.36Q79.34 0.36 76.8-1.04 74.25-2.44 72.8-5.16 71.35-7.89 71.35-11.65L71.35-11.65 71.35-28.19 78.48-28.19 78.48-12.67Q78.48-9.31 80.16-7.51 81.84-5.7 84.74-5.7L84.74-5.7Q87.69-5.7 89.37-7.51 91.05-9.31 91.05-12.67L91.05-12.67 91.05-28.19ZM125.17-22.44L112.75-5.85 125.32-5.85 125.32 0 104.66 0 104.66-5.75 116.98-22.34 104.72-22.34 104.72-28.19 125.17-28.19 125.17-22.44ZM158.02-14.71Q158.02-13.18 157.82-11.96L157.82-11.96 137.21-11.96Q137.47-8.9 139.35-7.17 141.23-5.44 143.98-5.44L143.98-5.44Q147.95-5.44 149.63-8.85L149.63-8.85 157.31-8.85Q156.09-4.78 152.63-2.16 149.17 0.46 144.13 0.46L144.13 0.46Q140.06 0.46 136.83-1.35 133.6-3.15 131.79-6.46 129.99-9.77 129.99-14.09L129.99-14.09Q129.99-18.47 131.77-21.78 133.55-25.09 136.75-26.87 139.96-28.65 144.13-28.65L144.13-28.65Q148.15-28.65 151.33-26.92 154.51-25.19 156.27-22.01 158.02-18.83 158.02-14.71L158.02-14.71ZM137.26-16.74L150.64-16.74Q150.59-19.49 148.66-21.14 146.73-22.8 143.93-22.8L143.93-22.8Q141.28-22.8 139.48-21.19 137.67-19.59 137.26-16.74L137.26-16.74ZM162.38-14.2Q162.38-18.47 164.09-21.78 165.79-25.09 168.74-26.87 171.69-28.65 175.31-28.65L175.31-28.65Q178.05-28.65 180.55-27.45 183.04-26.26 184.52-24.27L184.52-24.27 184.52-37.65 191.74-37.65 191.74 0 184.52 0 184.52-4.17Q183.19-2.09 180.8-0.81 178.41 0.46 175.25 0.46L175.25 0.46Q171.69 0.46 168.74-1.37 165.79-3.21 164.09-6.54 162.38-9.87 162.38-14.2L162.38-14.2ZM184.57-14.09Q184.57-16.69 183.55-18.55 182.53-20.4 180.8-21.4 179.07-22.39 177.09-22.39L177.09-22.39Q175.1-22.39 173.42-21.42 171.74-20.45 170.7-18.6 169.66-16.74 169.66-14.2L169.66-14.2Q169.66-11.65 170.7-9.74 171.74-7.84 173.45-6.82 175.15-5.8 177.09-5.8L177.09-5.8Q179.07-5.8 180.8-6.79 182.53-7.79 183.55-9.64 184.57-11.5 184.57-14.09L184.57-14.09Z" transform="translate(-3.509999990463257, 37.650001525878906)"></path></g> </g></g> </g></g><defs v-gra="od"></defs><defs v-gra="id"><filter id="6c89f1b6-1b95-4748-b6f2-187f4efc6570" filterUnits="userSpaceOnUse"><feColorMatrix type="matrix" values="0 0 0 0 0.99609375  0 0 0 0 0.99609375  0 0 0 0 0.99609375  0 0 0 1 0"></feColorMatrix></filter><linearGradient x1="0" y1="1" x2="0" y2="0" id="UxB2umEen5ucYOcVrwgwS"><stop offset="0%" stop-color="#12c2e9"></stop><stop offset="50%" stop-color="#c471ed"></stop><stop offset="100%" stop-color="#f64f59"></stop></linearGradient><filter id="42443b3f1de60f6b6fd3b6a9844b4764" filterUnits="objectBoundingBox"><feColorMatrix type="matrix" values="0 0 0 0 0.99609375  0 0 0 0 0.99609375  0 0 0 0 0.99609375  0 0 0 1 0"></feColorMatrix></filter></defs><mask v-gra="im" id="7efdda9c-3a29-4331-937c-00ee2a4c856f"><g class="iconsvg-imagesvg" filter="url(#6c89f1b6-1b95-4748-b6f2-187f4efc6570)"><g><rect fill="#333" fill-opacity="0" stroke-width="2" x="0" y="0" width="16.401892796462747" height="16.443494838403907" class="image-rect"></rect> <svg x="0" y="0" width="16.401892796462747" height="16.443494838403907" filtersec="colorsb9749476611" class="image-svg-svg primary" style="overflow: visible;"><svg xmlns="http://www.w3.org/2000/svg" viewBox="-0.001987457275390625 -0.00008392333984375 99.52532958984375 99.77788543701172"><g d-rs="3" transform="matrix(1,0,0,-1,0,99.7778)"><g fill-rule="evenodd"><path d="M71.82 38.55L38.29 72.07C23.23 87.13 46 109.89 61.06 94.84l33.52-33.53c15.06-15.06-7.7-37.82-22.76-22.76z" fill="#a463ff" opacity=".8"></path><path d="M61.23 72.07L27.71 38.55c-15.06-15.06-37.83 7.7-22.77 22.76l33.53 33.53c15.06 15.05 37.82-7.71 22.76-22.77z" fill="#ff007b" opacity=".8"></path><path d="M64.17 34.81L49.76 49.22 35.35 34.81c-9.46-9.46-7-21.34.11-28.49A20.86 20.86 0 0 1 49.76 0C65.3.19 78.65 20.33 64.17 34.81z" fill="#00e29c"></path></g></g></svg></svg> </g></g></mask></g></svg>