<svg xmlns="http://www.w3.org/2000/svg" xmlns:xlink="http://www.w3.org/1999/xlink" version="1.0" x="0" y="0" width="2400" height="2215.548011538829" viewBox="157.83889371871948 113.77353269577026 24.322214469909667 22.452930793762206" preserveAspectRatio="xMidYMid meet" color-interpolation-filters="sRGB"><g><defs><linearGradient id="92" x1="0%" y1="0%" x2="100%" y2="0%"><stop offset="0%" stop-color="#fa71cd"></stop> <stop offset="100%" stop-color="#9b59b6"></stop></linearGradient><linearGradient id="93" x1="0%" y1="0%" x2="100%" y2="0%"><stop offset="0%" stop-color="#f9d423"></stop> <stop offset="100%" stop-color="#f83600"></stop></linearGradient><linearGradient id="94" x1="0%" y1="0%" x2="100%" y2="0%"><stop offset="0%" stop-color="#0064d2"></stop> <stop offset="100%" stop-color="#1cb0f6"></stop></linearGradient><linearGradient id="95" x1="0%" y1="0%" x2="100%" y2="0%"><stop offset="0%" stop-color="#f00978"></stop> <stop offset="100%" stop-color="#3f51b1"></stop></linearGradient><linearGradient id="96" x1="0%" y1="0%" x2="100%" y2="0%"><stop offset="0%" stop-color="#7873f5"></stop> <stop offset="100%" stop-color="#ec77ab"></stop></linearGradient><linearGradient id="97" x1="0%" y1="0%" x2="100%" y2="0%"><stop offset="0%" stop-color="#f9d423"></stop> <stop offset="100%" stop-color="#e14fad"></stop></linearGradient><linearGradient id="98" x1="0%" y1="0%" x2="100%" y2="0%"><stop offset="0%" stop-color="#009efd"></stop> <stop offset="100%" stop-color="#2af598"></stop></linearGradient><linearGradient id="99" x1="0%" y1="0%" x2="100%" y2="0%"><stop offset="0%" stop-color="#ffcc00"></stop> <stop offset="100%" stop-color="#00b140"></stop></linearGradient><linearGradient id="100" x1="0%" y1="0%" x2="100%" y2="0%"><stop offset="0%" stop-color="#d51007"></stop> <stop offset="100%" stop-color="#ff8177"></stop></linearGradient><linearGradient id="102" x1="0%" y1="0%" x2="100%" y2="0%"><stop offset="0%" stop-color="#a2b6df"></stop> <stop offset="100%" stop-color="#0c3483"></stop></linearGradient><linearGradient id="103" x1="0%" y1="0%" x2="100%" y2="0%"><stop offset="0%" stop-color="#7ac5d8"></stop> <stop offset="100%" stop-color="#eea2a2"></stop></linearGradient><linearGradient id="104" x1="0%" y1="0%" x2="100%" y2="0%"><stop offset="0%" stop-color="#00ecbc"></stop> <stop offset="100%" stop-color="#007adf"></stop></linearGradient><linearGradient id="105" x1="0%" y1="0%" x2="100%" y2="0%"><stop offset="0%" stop-color="#b88746"></stop> <stop offset="100%" stop-color="#fdf5a6"></stop></linearGradient></defs><g class="imagesvg isNoFont" transform="translate(158.0773458480835,114.01198768615723)"><g><rect fill="#333" fill-opacity="0" stroke-width="2" x="0" y="0" width="23.84530560452764" height="21.976024924453615" class="image-rect"></rect> <svg x="0" y="0" width="23.84530560452764" height="21.976024924453615" filtersec="colorsb1628497697" class="image-svg-svg primary" style="overflow: visible;"><svg xmlns="http://www.w3.org/2000/svg" viewBox="-0.00011817641643574461 0.04781933128833771 153.13011169433594 141.12530517578125"><path d="M84.88 23.92L29.75 79.4 1.84 107.49A22 22 0 0 0 0 116.37c0 13.52 12.4 24.51 27.81 24.8h66.56a28.58 28.58 0 0 0 29-28.21V35.21A27.34 27.34 0 0 0 99 19.89a26.71 26.71 0 0 0-14.12 4.03z" fill="#B860E6" opacity=".8" style="isolation:isolate"></path><path d="M29.8 28.22V106a27.35 27.35 0 0 0 24.38 15.32 26.8 26.8 0 0 0 14.09-4l55.12-55.48 27.9-28.16a22.23 22.23 0 0 0 1.84-8.84c0-13.5-12.39-24.5-27.79-24.79h-66.6A28.59 28.59 0 0 0 29.8 28.22z" fill="#0fabf6" opacity=".8" style="isolation:isolate"></path><path d="M68.27 117.27l55.12-55.48V35.21A27.34 27.34 0 0 0 99 19.89a26.64 26.64 0 0 0-14.07 4l-55.12 55.5V106a27.38 27.38 0 0 0 24.37 15.32 26.8 26.8 0 0 0 14.09-4.05z" fill="#501b8d" opacity=".5" style="isolation:isolate"></path></svg></svg> </g></g><defs v-gra="od"></defs></g></svg>